<?xml version="1.0" encoding="UTF-8"?>
<!DOCTYPE svg PUBLIC "-//W3C//DTD SVG 1.1//EN" "http://www.w3.org/Graphics/SVG/1.1/DTD/svg11.dtd">
<svg xmlns="http://www.w3.org/2000/svg" version="1.1" width="512px" height="512px" style="shape-rendering:geometricPrecision; text-rendering:geometricPrecision; image-rendering:optimizeQuality; fill-rule:evenodd; clip-rule:evenodd" xmlns:xlink="http://www.w3.org/1999/xlink">
<g><path style="opacity:0.99" fill="#fedc3f" d="M 417.5,430.5 C 391.5,430.5 365.5,430.5 339.5,430.5C 332.5,430.5 325.5,430.5 318.5,430.5C 355.726,412.612 385.059,385.945 406.5,350.5C 411.193,347.871 416.193,345.705 421.5,344C 429.541,338.224 432.708,330.391 431,320.5C 429.357,317.039 427.19,314.039 424.5,311.5C 427.32,308.919 430.654,307.086 434.5,306C 441.727,300.007 443.227,292.841 439,284.5C 437.242,282.235 435.075,280.568 432.5,279.5C 435.471,255.435 434.971,231.435 431,207.5C 428.923,198.171 426.09,189.171 422.5,180.5C 420.977,174.461 418.644,168.794 415.5,163.5C 401.499,132.16 380.499,106.494 352.5,86.5C 355.008,74.4991 350.175,67.4991 338,65.5C 333.462,66.7351 328.962,68.0685 324.5,69.5C 324.802,66.9407 324.468,64.6074 323.5,62.5C 319.439,51.2974 311.439,46.4641 299.5,48C 294.924,50.1235 290.257,51.9569 285.5,53.5C 205.783,37.0202 138.283,58.3535 83,117.5C 42.6451,166.599 27.8118,222.599 38.5,285.5C 27.1562,291.066 15.4896,296.066 3.5,300.5C 1.96986,292.768 0.636523,285.101 -0.5,277.5C -0.5,262.833 -0.5,248.167 -0.5,233.5C 9.28533,151.937 48.6187,89.1041 117.5,45C 179.627,9.21926 245.294,0.885927 314.5,20C 397.667,47.1667 452.833,102.333 480,185.5C 504.061,278.93 483.227,360.597 417.5,430.5 Z"/></g>
<g><path style="opacity:1" fill="#fec739" d="M 285.5,53.5 C 265.949,62.109 246.282,70.4423 226.5,78.5C 210.408,84.7107 194.408,91.2107 178.5,98C 167.585,104.496 164.418,113.663 169,125.5C 170.331,127.996 172.164,129.996 174.5,131.5C 171.069,133.602 167.402,135.435 163.5,137C 157.401,142.743 155.901,149.577 159,157.5C 163.999,163.86 170.499,166.193 178.5,164.5C 185.639,182.585 192.972,200.585 200.5,218.5C 196.239,220.484 191.906,222.484 187.5,224.5C 181.724,215.742 174.057,213.575 164.5,218C 158.698,223.018 157.031,229.184 159.5,236.5C 119.235,253.032 78.9015,269.365 38.5,285.5C 27.8118,222.599 42.6451,166.599 83,117.5C 138.283,58.3535 205.783,37.0202 285.5,53.5 Z"/></g>
<g><path style="opacity:1" fill="#9b6641" d="M 323.5,62.5 C 323.777,65.4475 323.444,68.2809 322.5,71C 291.474,83.8486 260.474,96.6819 229.5,109.5C 220.703,99.5355 220.37,89.3688 228.5,79C 227.906,78.5357 227.239,78.369 226.5,78.5C 246.282,70.4423 265.949,62.109 285.5,53.5C 290.257,51.9569 294.924,50.1235 299.5,48C 311.439,46.4641 319.439,51.2974 323.5,62.5 Z"/></g>
<g><path style="opacity:1" fill="#ac7751" d="M 323.5,62.5 C 324.468,64.6074 324.802,66.9407 324.5,69.5C 328.962,68.0685 333.462,66.7351 338,65.5C 350.175,67.4991 355.008,74.4991 352.5,86.5C 350.547,90.1203 347.881,93.1203 344.5,95.5C 306.466,110.064 268.799,125.397 231.5,141.5C 231.167,141.5 230.833,141.5 230.5,141.5C 217.581,141.747 211.748,135.413 213,122.5C 214.273,119.403 216.107,116.736 218.5,114.5C 221.983,112.594 225.65,110.928 229.5,109.5C 260.474,96.6819 291.474,83.8486 322.5,71C 323.444,68.2809 323.777,65.4475 323.5,62.5 Z"/></g>
<g><path style="opacity:1" fill="#875431" d="M 226.5,78.5 C 227.239,78.369 227.906,78.5357 228.5,79C 220.37,89.3688 220.703,99.5355 229.5,109.5C 225.65,110.928 221.983,112.594 218.5,114.5C 203.833,120.167 189.167,125.833 174.5,131.5C 172.164,129.996 170.331,127.996 169,125.5C 164.418,113.663 167.585,104.496 178.5,98C 194.408,91.2107 210.408,84.7107 226.5,78.5 Z"/></g>
<g><path style="opacity:1" fill="#fec739" d="M 352.5,86.5 C 380.499,106.494 401.499,132.16 415.5,163.5C 402.318,148.449 385.985,143.783 366.5,149.5C 359.717,131.268 352.384,113.268 344.5,95.5C 347.881,93.1203 350.547,90.1203 352.5,86.5 Z"/></g>
<g><path style="opacity:1" fill="#9b6642" d="M 344.5,95.5 C 352.384,113.268 359.717,131.268 366.5,149.5C 329.679,165.405 292.679,181.072 255.5,196.5C 248.787,178.072 241.787,159.738 234.5,141.5C 233.5,141.5 232.5,141.5 231.5,141.5C 268.799,125.397 306.466,110.064 344.5,95.5 Z"/></g>
<g><path style="opacity:1" fill="#9b6642" d="M 218.5,114.5 C 216.107,116.736 214.273,119.403 213,122.5C 211.748,135.413 217.581,141.747 230.5,141.5C 212.966,148.786 195.633,156.453 178.5,164.5C 170.499,166.193 163.999,163.86 159,157.5C 155.901,149.577 157.401,142.743 163.5,137C 167.402,135.435 171.069,133.602 174.5,131.5C 189.167,125.833 203.833,120.167 218.5,114.5 Z"/></g>
<g><path style="opacity:1" fill="#875431" d="M 230.5,141.5 C 230.833,141.5 231.167,141.5 231.5,141.5C 232.5,141.5 233.5,141.5 234.5,141.5C 241.787,159.738 248.787,178.072 255.5,196.5C 252.843,196.935 250.509,197.935 248.5,199.5C 232.511,205.827 216.511,212.16 200.5,218.5C 192.972,200.585 185.639,182.585 178.5,164.5C 195.633,156.453 212.966,148.786 230.5,141.5 Z"/></g>
<g><path style="opacity:1" fill="#ac7751" d="M 415.5,163.5 C 418.644,168.794 420.977,174.461 422.5,180.5C 424.028,199.769 416.361,213.935 399.5,223C 398.748,223.671 398.414,224.504 398.5,225.5C 396.548,224.592 394.548,224.759 392.5,226C 356.744,240.886 321.078,255.719 285.5,270.5C 284.609,271.11 283.609,271.443 282.5,271.5C 256.629,275.782 239.795,265.448 232,240.5C 230.284,230.543 231.951,221.21 237,212.5C 240.381,207.718 244.214,203.385 248.5,199.5C 250.509,197.935 252.843,196.935 255.5,196.5C 292.679,181.072 329.679,165.405 366.5,149.5C 385.985,143.783 402.318,148.449 415.5,163.5 Z"/></g>
<g><path style="opacity:1" fill="#fec739" d="M 422.5,180.5 C 426.09,189.171 428.923,198.171 431,207.5C 434.971,231.435 435.471,255.435 432.5,279.5C 428.5,278.167 424.5,278.167 420.5,279.5C 413.361,261.415 406.028,243.415 398.5,225.5C 398.414,224.504 398.748,223.671 399.5,223C 416.361,213.935 424.028,199.769 422.5,180.5 Z"/></g>
<g><path style="opacity:1" fill="#9b6642" d="M 248.5,199.5 C 244.214,203.385 240.381,207.718 237,212.5C 231.951,221.21 230.284,230.543 232,240.5C 239.795,265.448 256.629,275.782 282.5,271.5C 265.5,278.833 248.5,286.167 231.5,293.5C 227.051,294.892 222.718,296.559 218.5,298.5C 213.656,287.988 208.989,277.321 204.5,266.5C 198.833,252.5 193.167,238.5 187.5,224.5C 191.906,222.484 196.239,220.484 200.5,218.5C 216.511,212.16 232.511,205.827 248.5,199.5 Z"/></g>
<g><path style="opacity:1" fill="#e8eefd" d="M 187.5,224.5 C 193.167,238.5 198.833,252.5 204.5,266.5C 202.342,277.492 195.675,282.659 184.5,282C 181.403,280.727 178.736,278.893 176.5,276.5C 175.833,275.5 175.167,274.5 174.5,273.5C 169.774,261.049 164.774,248.716 159.5,236.5C 157.031,229.184 158.698,223.018 164.5,218C 174.057,213.575 181.724,215.742 187.5,224.5 Z"/></g>
<g><path style="opacity:1" fill="#9b6642" d="M 398.5,225.5 C 406.028,243.415 413.361,261.415 420.5,279.5C 383.381,294.56 346.381,309.893 309.5,325.5C 302.97,308.416 296.136,291.416 289,274.5C 288.502,272.456 287.335,271.122 285.5,270.5C 321.078,255.719 356.744,240.886 392.5,226C 394.548,224.759 396.548,224.592 398.5,225.5 Z"/></g>
<g><path style="opacity:0.998" fill="#5f5f9a" d="M 159.5,236.5 C 164.774,248.716 169.774,261.049 174.5,273.5C 120.833,295.5 67.1667,317.5 13.5,339.5C 9.06956,326.778 5.73623,313.778 3.5,300.5C 15.4896,296.066 27.1562,291.066 38.5,285.5C 78.9015,269.365 119.235,253.032 159.5,236.5 Z"/></g>
<g><path style="opacity:1" fill="#d2dbf9" d="M 204.5,266.5 C 208.989,277.321 213.656,287.988 218.5,298.5C 219.402,315.689 211.735,321.856 195.5,317C 193.266,314.937 191.266,312.771 189.5,310.5C 185.16,299.156 180.827,287.823 176.5,276.5C 178.736,278.893 181.403,280.727 184.5,282C 195.675,282.659 202.342,277.492 204.5,266.5 Z"/></g>
<g><path style="opacity:1" fill="#875431" d="M 285.5,270.5 C 287.335,271.122 288.502,272.456 289,274.5C 296.136,291.416 302.97,308.416 309.5,325.5C 307.847,325.66 306.514,326.326 305.5,327.5C 288.399,333.883 271.399,340.55 254.5,347.5C 246.851,329.572 239.184,311.572 231.5,293.5C 248.5,286.167 265.5,278.833 282.5,271.5C 283.609,271.443 284.609,271.11 285.5,270.5 Z"/></g>
<g><path style="opacity:1" fill="#47477f" d="M 174.5,273.5 C 175.167,274.5 175.833,275.5 176.5,276.5C 180.827,287.823 185.16,299.156 189.5,310.5C 149.343,326.991 109.343,343.658 69.5,360.5C 56.5665,365.7 43.5665,370.7 30.5,375.5C 23.7753,364.048 18.1086,352.048 13.5,339.5C 67.1667,317.5 120.833,295.5 174.5,273.5 Z"/></g>
<g><path style="opacity:1" fill="#ab7651" d="M 432.5,279.5 C 435.075,280.568 437.242,282.235 439,284.5C 443.227,292.841 441.727,300.007 434.5,306C 430.654,307.086 427.32,308.919 424.5,311.5C 392.234,323.281 360.234,336.281 328.5,350.5C 325.426,351.302 322.426,352.302 319.5,353.5C 304.749,353.916 298.915,346.916 302,332.5C 303.176,330.804 304.343,329.138 305.5,327.5C 306.514,326.326 307.847,325.66 309.5,325.5C 346.381,309.893 383.381,294.56 420.5,279.5C 424.5,278.167 428.5,278.167 432.5,279.5 Z"/></g>
<g><path style="opacity:1" fill="#fec739" d="M 231.5,293.5 C 239.184,311.572 246.851,329.572 254.5,347.5C 244.735,353.908 242.902,362.242 249,372.5C 252.175,375.254 255.841,376.921 260,377.5C 265.094,376.533 269.928,374.867 274.5,372.5C 273.969,386.097 280.469,393.763 294,395.5C 313.108,388.862 331.941,381.529 350.5,373.5C 369.001,365.444 387.667,357.777 406.5,350.5C 385.059,385.945 355.726,412.612 318.5,430.5C 305.496,430.333 292.496,430.5 279.5,431C 271.608,433.392 266.608,438.558 264.5,446.5C 182.684,454.93 117.684,426.264 69.5,360.5C 109.343,343.658 149.343,326.991 189.5,310.5C 191.266,312.771 193.266,314.937 195.5,317C 211.735,321.856 219.402,315.689 218.5,298.5C 222.718,296.559 227.051,294.892 231.5,293.5 Z"/></g>
<g><path style="opacity:1" fill="#9b6642" d="M 424.5,311.5 C 427.19,314.039 429.357,317.039 431,320.5C 432.708,330.391 429.541,338.224 421.5,344C 416.193,345.705 411.193,347.871 406.5,350.5C 387.667,357.777 369.001,365.444 350.5,373.5C 337.739,371.071 330.405,363.405 328.5,350.5C 360.234,336.281 392.234,323.281 424.5,311.5 Z"/></g>
<g><path style="opacity:1" fill="#9b6642" d="M 305.5,327.5 C 304.343,329.138 303.176,330.804 302,332.5C 298.915,346.916 304.749,353.916 319.5,353.5C 304.683,360.07 289.683,366.403 274.5,372.5C 269.928,374.867 265.094,376.533 260,377.5C 255.841,376.921 252.175,375.254 249,372.5C 242.902,362.242 244.735,353.908 254.5,347.5C 271.399,340.55 288.399,333.883 305.5,327.5 Z"/></g>
<g><path style="opacity:1" fill="#875431" d="M 328.5,350.5 C 330.405,363.405 337.739,371.071 350.5,373.5C 331.941,381.529 313.108,388.862 294,395.5C 280.469,393.763 273.969,386.097 274.5,372.5C 289.683,366.403 304.683,360.07 319.5,353.5C 322.426,352.302 325.426,351.302 328.5,350.5 Z"/></g>
<g><path style="opacity:0.991" fill="#fedc40" d="M 69.5,360.5 C 117.684,426.264 182.684,454.93 264.5,446.5C 264.221,451.327 264.887,455.993 266.5,460.5C 257.494,460.334 248.494,460.5 239.5,461C 227.877,465.073 223.043,473.239 225,485.5C 227.263,492.593 231.763,497.593 238.5,500.5C 156.461,496.905 91.2944,462.238 43,396.5C 38.607,389.613 34.4403,382.613 30.5,375.5C 43.5665,370.7 56.5665,365.7 69.5,360.5 Z"/></g>
<g><path style="opacity:1" fill="#3b3868" d="M 318.5,430.5 C 325.5,430.5 332.5,430.5 339.5,430.5C 325.923,436.332 321.59,446.332 326.5,460.5C 317.5,460.5 308.5,460.5 299.5,460.5C 288.5,460.5 277.5,460.5 266.5,460.5C 264.887,455.993 264.221,451.327 264.5,446.5C 266.608,438.558 271.608,433.392 279.5,431C 292.496,430.5 305.496,430.333 318.5,430.5 Z"/></g>
<g><path style="opacity:0.997" fill="#47477e" d="M 339.5,430.5 C 365.5,430.5 391.5,430.5 417.5,430.5C 431.171,430.333 444.837,430.5 458.5,431C 471.255,437.358 474.922,447.191 469.5,460.5C 421.833,460.5 374.167,460.5 326.5,460.5C 321.59,446.332 325.923,436.332 339.5,430.5 Z"/></g>
<g><path style="opacity:1" fill="#47477f" d="M 266.5,460.5 C 277.5,460.5 288.5,460.5 299.5,460.5C 284.288,467.638 280.788,478.638 289,493.5C 292.154,496.512 295.654,498.845 299.5,500.5C 279.167,500.5 258.833,500.5 238.5,500.5C 231.763,497.593 227.263,492.593 225,485.5C 223.043,473.239 227.877,465.073 239.5,461C 248.494,460.5 257.494,460.334 266.5,460.5 Z"/></g>
<g><path style="opacity:0.998" fill="#5e5e9a" d="M 299.5,460.5 C 308.5,460.5 317.5,460.5 326.5,460.5C 374.167,460.5 421.833,460.5 469.5,460.5C 479.172,460.334 488.839,460.5 498.5,461C 504.685,463.353 509.018,467.52 511.5,473.5C 511.5,478.167 511.5,482.833 511.5,487.5C 509.018,493.48 504.685,497.647 498.5,500C 432.168,500.5 365.834,500.667 299.5,500.5C 295.654,498.845 292.154,496.512 289,493.5C 280.788,478.638 284.288,467.638 299.5,460.5 Z"/></g>
</svg>
